<svg xmlns="http://www.w3.org/2000/svg" xmlns:xlink="http://www.w3.org/1999/xlink" viewBox="0,0,256,256" width="256px" height="256px" fill-rule="nonzero"><g fill="#00ff00" fill-rule="nonzero" stroke="none" stroke-width="1" stroke-linecap="butt" stroke-linejoin="miter" stroke-miterlimit="10" stroke-dasharray="" stroke-dashoffset="0" font-family="none" font-weight="none" font-size="none" text-anchor="none" style="mix-blend-mode: normal"><g transform="scale(8,8)"><path d="M6,4v2h2v-2zM6,6h-2v2h2zM4,8h-2v16h2zM4,24v2h2v-2zM6,26v2h2v-2zM24,4v2h2v-2zM26,6v2h2v-2zM28,8v16h2v-16zM28,24h-2v2h2zM26,26h-2v2h2zM11,8v2h2v-2zM11,10h-2v2h2zM9,12h-2v8h2zM9,20v2h2v-2zM11,22v2h2v-2zM19,8v2h2v-2zM21,10v2h2v-2zM23,12v8h2v-8zM23,20h-2v2h2zM21,22h-2v2h2zM14,14v4h4v-4z"></path></g></g></svg>