<svg xmlns="http://www.w3.org/2000/svg" xmlns:xlink="http://www.w3.org/1999/xlink" viewBox="0,0,256,256" width="256px" height="256px" fill-rule="nonzero"><g fill="#00ff00" fill-rule="nonzero" stroke="none" stroke-width="1" stroke-linecap="butt" stroke-linejoin="miter" stroke-miterlimit="10" stroke-dasharray="" stroke-dashoffset="0" font-family="none" font-weight="none" font-size="none" text-anchor="none" style="mix-blend-mode: normal"><g transform="scale(8,8)"><path d="M6,22h2v2h-2zM8,24h2v2h-2zM8,6h2v2h-2zM6,8h2v2h-2zM11,11h2v2h-2zM19,11h2v2h-2zM15,9h2v8h-2zM11,19h2v2h-2zM19,19h2v2h-2zM9,13h2v6h-2zM21,13h2v6h-2zM13,21h6v2h-6zM10,26h12v2h-12zM24,22h2v2h-2zM22,24h2v2h-2zM24,8h2v2h-2zM22,6h2v2h-2zM26,10h2v12h-2zM4,10h2v12h-2zM10,4h12v2h-12z"></path></g></g></svg>